<?xml version="1.0" encoding="utf-8"?>
<!-- Generator: Adobe Illustrator 24.0.2, SVG Export Plug-In . SVG Version: 6.00 Build 0)  -->
<svg version="1.1" id="Layer_1" xmlns="http://www.w3.org/2000/svg" xmlns:xlink="http://www.w3.org/1999/xlink" x="0px" y="0px"
	 viewBox="0 0 235 100" style="enable-background:new 0 0 235 100;" xml:space="preserve">
<style type="text/css">
	.st0{fill:#777777;}
	.st1{fill:#C44E55;}
</style>
<path class="st0" d="M44.5,57c0,5.5-2,9.6-6.1,12.5s-9.9,4.2-17.5,4.2c-4.1,0-7.7-0.2-10.8-0.6S4,71.9,0.8,70.8V56.6
	c3,1.2,6.3,2.2,9.8,3s6.7,1.2,9.5,1.2c4.2,0,6.2-0.9,6.2-2.6c0-0.9-0.6-1.7-1.7-2.4c-1.2-0.7-4.5-2.1-10.1-4.1
	C9.3,49.7,5.8,47.5,3.7,45s-3-5.6-3-9.3c0-4.8,2-8.5,6-11.1s9.6-4,16.9-4c3.7,0,7.1,0.4,10.3,1.1s6.6,1.8,10,3.2l-5.2,11.4
	c-2.5-1.1-5.3-2-8.1-2.7s-5.2-1.1-7-1.1c-3.1,0-4.7,0.7-4.7,2.1c0,0.9,0.5,1.6,1.6,2.2c1.1,0.6,4.3,1.9,9.5,3.8
	c3.9,1.5,6.8,2.9,8.7,4.3s3.3,3.1,4.2,5S44.5,54.2,44.5,57z"/>
<path class="st0" d="M82.8,73.6c-2.8,0-5.3-0.4-7.6-1.3c-2.2-0.9-4.4-2.4-6.6-4.6h-0.9c0.6,3.6,0.9,5.8,0.9,6.7V95H49.4V21.5H65
	l2.7,6.5h0.9c3.6-5,8.5-7.4,14.8-7.4c6.2,0,11,2.4,14.5,7.1s5.3,11.2,5.3,19.4c0,8.3-1.8,14.8-5.5,19.5S89,73.6,82.8,73.6z
	 M76.3,34.4c-2.8,0-4.8,0.9-5.9,2.8c-1.1,1.9-1.7,4.6-1.8,8.3v1.4c0,4.4,0.6,7.6,1.9,9.5s3.3,2.9,6,2.9c2.5,0,4.2-1,5.3-2.9
	c1.1-2,1.7-5.2,1.7-9.7c0-4.4-0.6-7.6-1.7-9.5C80.8,35.4,78.9,34.4,76.3,34.4z"/>
<path class="st0" d="M107.9,8.7c0-2.7,0.8-4.6,2.4-5.9s4.2-2,7.8-2s6.2,0.7,7.8,2s2.5,3.3,2.5,5.9c0,5.2-3.4,7.8-10.3,7.8
	C111.3,16.5,107.9,13.9,107.9,8.7z M127.6,72.7h-19.2V21.5h19.2V72.7z"/>
<path class="st0" d="M170.4,34.7h-11.8v38h-19.2v-38H132V26l7.8-4.4v-0.9c0-6.8,1.5-11.6,4.5-14.6s7.8-4.4,14.4-4.4
	c2.6,0,5,0.2,7.2,0.5c2.3,0.4,4.9,1,7.9,1.9l-4.1,11.4c-2.4-0.6-4.7-0.9-6.9-0.9c-1.5,0-2.6,0.4-3.2,1.2c-0.7,0.8-1,2.2-1,4v1.4
	h11.8L170.4,34.7L170.4,34.7z M212,34.7h-11.8v38H181v-38h-7.4V26l7.8-4.4v-0.9c0-6.8,1.5-11.6,4.5-14.6c3-3,7.8-4.4,14.4-4.4
	c2.6,0,5,0.2,7.2,0.5c2.3,0.4,4.9,1,7.9,1.9l-4.1,11.4c-2.4-0.6-4.7-0.9-6.9-0.9c-1.5,0-2.6,0.4-3.2,1.2c-0.7,0.8-1,2.2-1,4v1.4H212
	V34.7z"/>
<g>
	<path class="st1" d="M82.6,94.6V83h3.1v11.6H82.6z"/>
	<path class="st1" d="M92.5,92.3c0.4,0,0.9-0.1,1.5-0.3v2.3c-0.4,0.2-0.8,0.3-1.2,0.4c-0.4,0.1-0.8,0.1-1.3,0.1
		c-1,0-1.8-0.3-2.3-0.8s-0.7-1.3-0.7-2.3v-3.7h-1.1v-1.3l1.4-1l0.8-1.9h2v1.8h2.2v2.3h-2.2v3.5C91.7,92,91.9,92.3,92.5,92.3z"/>
	<path class="st1" d="M98.3,83l0.1,0.2c-0.5,1.9-0.9,3.4-1.4,4.4h-2.2c0.4-1.7,0.6-3.2,0.8-4.6H98.3z"/>
	<path class="st1" d="M106.5,91.8c0,1-0.3,1.7-1,2.2s-1.6,0.7-2.8,0.7c-0.7,0-1.2,0-1.7-0.1c-0.5-0.1-1-0.2-1.5-0.4v-2.5
		c0.5,0.2,1,0.4,1.6,0.5c0.6,0.1,1.1,0.2,1.5,0.2c0.7,0,1-0.2,1-0.5c0-0.2-0.1-0.3-0.3-0.4c-0.2-0.1-0.7-0.4-1.6-0.7
		c-0.8-0.3-1.4-0.7-1.7-1.2s-0.5-1-0.5-1.6c0-0.8,0.3-1.5,1-1.9c0.6-0.5,1.6-0.7,2.7-0.7c0.6,0,1.2,0.1,1.7,0.2
		c0.5,0.1,1.1,0.3,1.6,0.6l-0.8,2c-0.4-0.2-0.8-0.3-1.3-0.5s-0.8-0.2-1.1-0.2c-0.5,0-0.8,0.1-0.8,0.4c0,0.2,0.1,0.3,0.3,0.4
		s0.7,0.3,1.5,0.7c0.6,0.3,1.1,0.5,1.4,0.8c0.3,0.3,0.5,0.5,0.7,0.9C106.5,90.9,106.5,91.3,106.5,91.8z"/>
	<path class="st1" d="M120.2,94.6l-1-4.3l-0.2-1.3l-0.2-1h-0.1c-0.3,1.5-0.4,2.4-0.5,2.8l-0.9,3.8H114l-2.4-9h3.1l0.7,3.4
		c0.2,1.2,0.4,2.2,0.4,2.9h0.1c0-0.5,0.2-1.4,0.4-2.8l0.8-3.6h3.4l0.8,3.7c0.2,1.2,0.4,2.1,0.5,2.7h0.1c0-0.4,0.1-0.9,0.2-1.5
		c0.1-0.6,0.2-1.1,0.3-1.4l0.8-3.4h3l-2.5,9L120.2,94.6L120.2,94.6z"/>
	<path class="st1" d="M135.8,90.1c0,1.5-0.4,2.6-1.2,3.4s-1.9,1.2-3.3,1.2c-1.4,0-2.4-0.4-3.3-1.3c-0.8-0.8-1.2-2-1.2-3.4
		c0-1.5,0.4-2.6,1.2-3.4c0.8-0.8,1.9-1.2,3.3-1.2c0.9,0,1.7,0.2,2.3,0.6c0.7,0.4,1.2,0.9,1.6,1.6C135.6,88.3,135.8,89.1,135.8,90.1z
		 M130,90.1c0,0.8,0.1,1.4,0.3,1.8c0.2,0.4,0.6,0.6,1,0.6c0.5,0,0.8-0.2,1-0.6c0.2-0.4,0.3-1,0.3-1.8c0-0.8-0.1-1.3-0.3-1.7
		c-0.2-0.4-0.5-0.6-1-0.6c-0.5,0-0.8,0.2-1,0.6C130.1,88.7,130,89.3,130,90.1z"/>
	<path class="st1" d="M142.9,85.4c0.3,0,0.5,0,0.8,0.1l0.2,0l-0.3,2.9c-0.3-0.1-0.6-0.1-1.1-0.1c-0.7,0-1.2,0.2-1.5,0.5
		c-0.3,0.3-0.5,0.8-0.5,1.3v4.4h-3.1v-9h2.3l0.5,1.4h0.1c0.3-0.5,0.6-0.9,1.1-1.2C142,85.6,142.5,85.4,142.9,85.4z"/>
	<path class="st1" d="M148.1,89.5c0.4-0.6,0.7-1.1,1-1.4l2-2.5h3.4l-3.1,3.8l3.3,5.2h-3.5l-2-3.2l-1,0.8v2.4h-3.1V82.3h3.1v4.8
		C148.3,87.9,148.2,88.7,148.1,89.5L148.1,89.5L148.1,89.5z"/>
	<path class="st1" d="M155.8,83.4c0-0.5,0.1-0.8,0.4-1s0.7-0.3,1.3-0.3c0.6,0,1,0.1,1.3,0.3c0.3,0.2,0.4,0.6,0.4,1
		c0,0.9-0.6,1.4-1.6,1.4C156.3,84.7,155.8,84.3,155.8,83.4z M158.9,94.6h-3.1v-9h3.1V94.6z"/>
	<path class="st1" d="M166.8,94.6v-4.9c0-0.6-0.1-1.1-0.3-1.3c-0.2-0.3-0.4-0.5-0.8-0.5c-0.5,0-0.9,0.2-1.1,0.6
		c-0.2,0.4-0.4,1.1-0.4,2.1v3.9h-3.1v-9h2.3l0.4,1.1h0.2c0.3-0.4,0.6-0.7,1.1-0.9s1-0.3,1.6-0.3c1,0,1.8,0.3,2.3,0.9
		c0.6,0.6,0.8,1.4,0.8,2.4v5.8L166.8,94.6L166.8,94.6z"/>
	<path class="st1" d="M180.4,85.6v1.5l-1.2,0.4c0.2,0.3,0.3,0.7,0.3,1.1c0,1-0.3,1.7-1,2.3c-0.7,0.5-1.7,0.8-3,0.8
		c-0.3,0-0.6,0-0.8-0.1c-0.1,0.1-0.1,0.3-0.1,0.4c0,0.2,0.1,0.3,0.4,0.3s0.6,0.1,1,0.1h1.5c2,0,3,0.8,3,2.5c0,1.1-0.5,1.9-1.4,2.6
		s-2.2,0.9-3.9,0.9c-1.3,0-2.3-0.2-2.9-0.6s-1-1-1-1.8c0-1.1,0.7-1.8,2-2.1c-0.3-0.1-0.5-0.3-0.7-0.6c-0.2-0.3-0.3-0.5-0.3-0.8
		c0-0.3,0.1-0.5,0.2-0.7s0.5-0.5,1-0.8c-0.5-0.2-0.8-0.5-1.1-1s-0.4-1-0.4-1.6c0-1,0.3-1.7,1-2.3c0.7-0.5,1.6-0.8,2.9-0.8
		c0.2,0,0.4,0,0.9,0.1c0.4,0,0.7,0.1,0.9,0.1L180.4,85.6L180.4,85.6z M173.7,95.7c0,0.3,0.1,0.5,0.4,0.6s0.6,0.2,1.1,0.2
		c0.8,0,1.4-0.1,1.8-0.3s0.7-0.4,0.7-0.7c0-0.2-0.1-0.4-0.4-0.5s-0.7-0.2-1.2-0.2h-1.2c-0.3,0-0.6,0.1-0.8,0.2
		S173.7,95.5,173.7,95.7z M174.6,88.6c0,0.9,0.3,1.4,1,1.4c0.3,0,0.5-0.1,0.7-0.3c0.2-0.2,0.2-0.6,0.2-1c0-0.9-0.3-1.4-0.9-1.4
		C175,87.2,174.6,87.6,174.6,88.6z"/>
	<path class="st1" d="M194.5,85.6v1.5l-1.2,0.4c0.2,0.3,0.3,0.7,0.3,1.1c0,1-0.3,1.7-1,2.3c-0.7,0.5-1.7,0.8-3,0.8
		c-0.3,0-0.6,0-0.8-0.1c-0.1,0.1-0.1,0.3-0.1,0.4c0,0.2,0.1,0.3,0.4,0.3s0.6,0.1,1,0.1h1.5c2,0,3,0.8,3,2.5c0,1.1-0.5,1.9-1.4,2.6
		s-2.2,0.9-3.9,0.9c-1.3,0-2.3-0.2-2.9-0.6c-0.7-0.4-1-1-1-1.8c0-1.1,0.7-1.8,2-2.1c-0.3-0.1-0.5-0.3-0.7-0.6
		c-0.2-0.3-0.3-0.5-0.3-0.8c0-0.3,0.1-0.5,0.2-0.7s0.5-0.5,1-0.8c-0.5-0.2-0.8-0.5-1.1-1s-0.4-1-0.4-1.6c0-1,0.3-1.7,1-2.3
		c0.7-0.5,1.6-0.8,2.9-0.8c0.2,0,0.4,0,0.9,0.1c0.4,0,0.7,0.1,0.9,0.1L194.5,85.6L194.5,85.6z M187.7,95.7c0,0.3,0.1,0.5,0.4,0.6
		c0.3,0.2,0.6,0.2,1.1,0.2c0.8,0,1.4-0.1,1.8-0.3s0.7-0.4,0.7-0.7c0-0.2-0.1-0.4-0.4-0.5s-0.7-0.2-1.2-0.2h-1.2
		c-0.3,0-0.6,0.1-0.8,0.2S187.7,95.5,187.7,95.7z M188.7,88.6c0,0.9,0.3,1.4,1,1.4c0.3,0,0.5-0.1,0.7-0.3c0.2-0.2,0.2-0.6,0.2-1
		c0-0.9-0.3-1.4-0.9-1.4C189,87.2,188.7,87.6,188.7,88.6z"/>
	<path class="st1" d="M201.2,85.4c0.3,0,0.5,0,0.8,0.1l0.2,0l-0.3,2.9c-0.3-0.1-0.6-0.1-1.1-0.1c-0.7,0-1.2,0.2-1.5,0.5
		c-0.3,0.3-0.5,0.8-0.5,1.3v4.4h-3.1v-9h2.3l0.5,1.4h0.1c0.3-0.5,0.6-0.9,1.1-1.2C200.3,85.6,200.8,85.4,201.2,85.4z"/>
	<path class="st1" d="M207.8,94.7c-1.5,0-2.6-0.4-3.5-1.2s-1.2-1.9-1.2-3.4c0-1.5,0.4-2.7,1.1-3.5c0.8-0.8,1.9-1.2,3.3-1.2
		c1.4,0,2.4,0.3,3.1,1.1c0.7,0.7,1.1,1.7,1.1,3v1.4h-5.5c0,0.5,0.2,0.9,0.6,1.2s0.8,0.4,1.4,0.4c0.5,0,1-0.1,1.5-0.2
		s0.9-0.3,1.5-0.5v2.2c-0.5,0.3-1,0.4-1.5,0.5C209.1,94.7,208.5,94.7,207.8,94.7z M207.6,87.6c-0.4,0-0.7,0.1-0.9,0.3
		c-0.3,0.2-0.4,0.6-0.4,1.1h2.7c0-0.4-0.1-0.8-0.4-1C208.3,87.7,208,87.6,207.6,87.6z"/>
	<path class="st1" d="M219.3,94.6l-0.6-1.2h-0.1c-0.4,0.5-0.8,0.9-1.3,1.1c-0.4,0.2-1,0.3-1.7,0.3c-0.8,0-1.5-0.3-2-0.8
		c-0.5-0.5-0.7-1.2-0.7-2.1c0-1,0.3-1.7,1-2.1c0.7-0.5,1.6-0.7,2.9-0.8l1.5-0.1v-0.1c0-0.7-0.4-1.1-1.1-1.1c-0.6,0-1.5,0.2-2.5,0.7
		l-0.9-2c1-0.5,2.4-0.8,4-0.8c1.1,0,2,0.3,2.7,0.8s0.9,1.4,0.9,2.4v5.9L219.3,94.6L219.3,94.6z M217,92.6c0.4,0,0.7-0.1,1-0.4
		c0.3-0.2,0.4-0.6,0.4-0.9v-0.7l-0.7,0c-1,0-1.5,0.4-1.5,1.1C216.1,92.3,216.4,92.6,217,92.6z"/>
	<path class="st1" d="M227.9,92.3c0.4,0,0.9-0.1,1.5-0.3v2.3c-0.4,0.2-0.8,0.3-1.2,0.4c-0.4,0.1-0.8,0.1-1.3,0.1
		c-1,0-1.8-0.3-2.3-0.8s-0.7-1.3-0.7-2.3v-3.7h-1.1v-1.3l1.4-1l0.8-1.9h2v1.8h2.2v2.3h-2.2v3.5C227.1,92,227.4,92.3,227.9,92.3z"/>
	<path class="st1" d="M233.6,90.5H231l-0.4-7.5h3.4L233.6,90.5z M230.6,93.3c0-0.5,0.1-0.8,0.4-1.1c0.3-0.3,0.7-0.4,1.2-0.4
		c0.5,0,0.9,0.1,1.2,0.4s0.4,0.6,0.4,1.1c0,0.5-0.1,0.8-0.4,1.1c-0.3,0.3-0.7,0.4-1.2,0.4s-0.9-0.1-1.2-0.4S230.6,93.7,230.6,93.3z"
		/>
</g>
</svg>
